<svg height="250" viewBox="0 0 70 250" xmlns="http://www.w3.org/2000/svg" width="70"><path d="M48.36 11.24c2.38 1.1 4.53 2.5 6.44 4.22.55.54 1.06 1.1 1.53 1.64.5.54.92 1.17 1.23 1.87 0 .16.04.33.12.53.07.2.05.41-.06.64-.35.32-.5.73-.41 1.23.08 2.23.02 4.48-.18 6.74 0 3.09-.12 6.16-.35 9.2-.31 5.28-.35 10.59-.12 15.94-.08.4-.11.78-.11 1.17a34.8 34.8 0 01-.53 4.57c-.2.31-.41.6-.65.88 0-.04-.02-.08-.06-.12-.07.16-.05.34.06.53-.2.24-.43.41-.7.53-.27.12-.49.3-.64.53a4.3 4.3 0 01-1 .35c-.2.04-.4.11-.59.23-.15.12-.3.16-.47.12-.9-.7-1.66-1.49-2.28-2.34a251.73 251.73 0 00-2.23-2.88c-1.6-.11-3.24-.2-4.92-.23-1.64-.08-3.26 0-4.86.23-4.53.2-9.03.3-13.48.3-.15.2-.3.23-.4.11-.63.36-1.26.77-1.88 1.23 0 .04-.02.1-.06.18a3.6 3.6 0 01-.76.59c-.24.2-.45.45-.65.76a.86.86 0 01-.53-.18c-.11-.08-.25-.08-.4 0a5.39 5.39 0 01-2.7-1.64l-2.17-2.4a3.14 3.14 0 01-.4-2.93c.19-.4.24-.8.17-1.23a7.75 7.75 0 010-1.35c.27-3.55.43-7.13.47-10.72v-11.3a145.6 145.6 0 01-.3-7.16 67.43 67.43 0 01-2.22-5.21c-.04-.28 0-.5.11-.65h.24L12.5 15a9.03 9.03 0 014.45 3.46c.4.39.67.84.82 1.34.2.51.5.94.88 1.3a.45.45 0 01.18-.07 28.4 28.4 0 0112.13-7.97c3.28-1.09 6.6-2 9.96-2.75 1.25-.04 2.5-.04 3.75 0 1.29 0 2.52.31 3.69.94zm-1.58 3.22c-.47-.39-1-.5-1.58-.35-.6.16-1.16.27-1.7.35a1.93 1.93 0 00-.47-.06h.06-.41.05c-.43 0-.84.04-1.23.12v-.06c-.3.08-.64.14-1 .18-.42.04-.8.15-1.1.35v-.06a.52.52 0 01-.24.06c-.08.12-.18.17-.3.17-.11-.04-.17 0-.17.12a.45.45 0 00-.17-.06c-.04 0-.08.02-.12.06h-.06l.06-.06c-.04.04-.1.06-.18.06a.44.44 0 01-.47.18c-.2-.08-.35-.04-.46.11-.28.04-.57.12-.88.24a.39.39 0 00-.36.06.65.65 0 01-.29.06v-.12c-.66.12-1.33.27-1.99.47-2.42.9-4.77 1.93-7.03 3.1a34.49 34.49 0 00-6.8 4.8.88.88 0 01-.53.53v.65c.12 1.56.26 3.1.41 4.63.08 3.47.1 6.97.06 10.49-.04 3.86-.2 7.7-.47 11.48.86.35 1.7.57 2.52.65 2.82-.36 5.6-.61 8.38-.77h4.4c2.03-.04 4.04-.05 6.03-.05 2.5.07 4.98.23 7.44.46.43-.3.92-.5 1.47-.58.35-1.92.53-3.83.53-5.74 0-1.96-.04-3.91-.12-5.86 0-.36.02-.77.06-1.23a299.47 299.47 0 00.12-8.85c0-.67.01-1.3.05-1.88l-.11-1.23.17.65c0-1.76.04-3.52.12-5.28.12-1.8.08-3.59-.12-5.39a12.24 12.24 0 00-3.57-2.4zm2.34 15.41l-.17.41c-.36.2-.7.24-1.06.12-.08.12-.21.15-.41.12-.2-.08-.31-.04-.35.11a8.9 8.9 0 00-2.99-.4c-.98.03-1.93.09-2.87.17-.43.23-.94.37-1.52.4-.55 0-1.04.05-1.47.13-.08.35-.2.72-.35 1.1-.16.4-.23.81-.23 1.24-.04.35-.12.7-.24 1.05-.12.36-.06.7.18 1.06.58.35 1.15.74 1.7 1.17 1.52 1.13 3.06 2.3 4.62 3.52a27.59 27.59 0 014.22 4.04c.47.74.88 1.48 1.23 2.23.36.74.43 1.48.24 2.22-.27.24-.47.55-.59.94-.23.47-.64.7-1.23.7-.58-.04-1.11 0-1.58.12a8.61 8.61 0 01-1.88-2.23 111.98 111.98 0 01-3.86-4.68 44.53 44.53 0 00-4.05-4.63c.04.11 0 .25-.11.4-.28.24-.51.55-.7.95-.2.35-.45.68-.77 1a25.2 25.2 0 01-3.98 4.85c-.47.28-.96.63-1.47 1.06-.5.39-1.07.66-1.7.82A16.56 16.56 0 0122 49.79c-.27.04-.54-.02-.82-.17.08.04.12.02.12-.06a.87.87 0 00-.41-.24 8.67 8.67 0 001.82-1.58 73.6 73.6 0 011.64-1.7 99.68 99.68 0 004.68-6.03 19.12 19.12 0 003.1-6.92c-.58.04-1.12.2-1.63.47-.5.28-1.08.43-1.7.47-.2 0-.27.14-.24.41-.27.31-.58.41-.93.3-1.17-.4-2.29-.85-3.34-1.35-.63-.47-1.3-.88-2-1.23-.7-.4-1.17-1-1.4-1.82l-.18-.3c-.04-.15 0-.25.12-.29.63-.2 1.27-.2 1.93 0 .7.2 1.35.22 1.94.06a20.82 20.82 0 013.98-1.35c1.4-.3 2.78-.8 4.1-1.46a62.7 62.7 0 00-.47-5.4c-.54-.42-1.1-.81-1.7-1.16a6.47 6.47 0 01-.52-1.23c.08 0 .13.02.17.06-.07-.08-.11-.14-.11-.18.54-.5 1.17-.72 1.87-.64.74.07 1.43.27 2.05.58a2.8 2.8 0 011.58.7c.47.36.96.7 1.47 1.06.62.31 1.15.84 1.58 1.58-.08.2-.14.43-.17.7-.04.28-.2.4-.47.36 0 .7-.06 1.42-.18 2.16.16-.04.3-.04.41 0 1.13-.2 2.25-.33 3.34-.4.2-.28.45-.46.76-.53 1.1.2 2.17.58 3.23 1.17.74.35 1.42.8 2.05 1.35.58.39.97.9 1.17 1.52l.3 1.17zm-2.1 40.43c.42.43.89.8 1.4 1.11.7.51 1.23 1.16 1.58 1.94.2.27.25.58.18.94-.04.39-.26.66-.65.82a14.17 14.17 0 01-2.7 1.28c-.15 0-.25.06-.29.18-.66.4-1.34.72-2.05 1l-.94.35c.04.04.06.08.06.12a5.3 5.3 0 012.05 1.75c.2.24.38.5.53.76.04.28.06.53.06.77-.04.43-.16.82-.35 1.17-.04.12-.02.21.06.3.2-.13.33-.28.4-.48a81.93 81.93 0 013.52-5.5c.24-.36.45-.73.65-1.12 0-.04-.02-.1-.06-.17.16.03.3-.02.4-.18.09.12.17.12.24 0v-.12c.08.04.16.06.24.06-.04-.12-.02-.2.06-.23.23 0 .45-.04.64-.12.55.12 1.06.37 1.52.76.59.2 1.14.5 1.64.94.2.31.38.64.53 1 .12.23.1.46-.06.7a6.4 6.4 0 00-.47.53c-.11.2-.29.29-.52.29-.28 0-.53.08-.76.23-.32.08-.65.18-1 .3l-.64.11-.06-.06c-.28.16-.57.26-.88.3-.31 0-.6.06-.88.17-.35.08-.67.24-.94.47-.2.2-.39.37-.58.53-.12.16-.3.27-.53.35-.24.27-.51.5-.82.7-.16.08-.31.2-.47.36 1.52-.2 3.05-.38 4.57-.53a.57.57 0 00.35-.24c.12-.15.27-.2.47-.11 1.1.39 2.13.86 3.1 1.4.16.32.4.51.7.59.13.16.18.35.18.58.24.04.4.2.47.47.08.24.22.41.41.53.04.16-.02.3-.17.41-.35 0-.67.08-.94.24a.73.73 0 01-.41 0c-.16 0-.31.03-.47.11-.35 0-.66.04-.94.12-.9 0-1.8.04-2.7.12-.7 0-1.4.06-2.1.17-.55.04-1.1.1-1.64.18-.2.04-.4.06-.59.06-.2.04-.37.1-.53.17.4.28.75.6 1.06 1a44.13 44.13 0 003.75 2.93 41.6 41.6 0 013.51 2.28c.94.43 1.86.94 2.76 1.53l.3.23c0-.04.01-.08.05-.12h.06c.04.12.14.2.3.24v.12c.03.03.07.05.1.05h.07c.04-.03.06-.02.06.06l.23.12v.12a16.1 16.1 0 012.64 2.52c.08.2.1.37.06.52-.4.04-.77.1-1.12.18-.08-.08-.2-.1-.35-.06-.12.04-.21.02-.3-.06-.15-.04-.25-.02-.28.06a.74.74 0 00-.65-.06c-.2.04-.39.04-.59 0a.4.4 0 00.3.12 23 23 0 00-1.64.06v-.06h-.12c0 .04-.02.06-.06.06a10.7 10.7 0 00-1-.18l-1.17-.23a1.1 1.1 0 00-.35-.06 1.02 1.02 0 00-.53-.3c-.27-.19-.54-.33-.82-.4a1.02 1.02 0 00-.52-.3 39.15 39.15 0 01-3.34-2.87c-.7-.7-1.43-1.33-2.17-1.87-.2-.28-.45-.5-.76-.65a2.2 2.2 0 01-.7-.64c-.16-.2-.34-.4-.53-.59-.08.2-.1.41-.06.65l-.12.11c.08.43.1.86.06 1.3.08 1.4.12 2.8.12 4.21l-.12.35c-.16.24-.37.45-.65.65-.07.12-.15.15-.23.12-.2.11-.39.2-.59.23-.27 0-.54.02-.82.06a1.18 1.18 0 00-.64.06c-.27.27-.6.37-1 .29a4.6 4.6 0 01-.82-.64.54.54 0 01-.35-.41c-.04-.7.02-1.41.18-2.11-.12-.47-.1-.94.06-1.41a3.26 3.26 0 010-1.23 202.52 202.52 0 01.11-2.05c-.07-.04-.2-.04-.35 0-.43.43-.86.9-1.29 1.4-.43.55-.92 1.06-1.46 1.53-.51.43-1 .92-1.47 1.46-.35.55-.8 1.02-1.34 1.4a8.47 8.47 0 01-1.94 1.65c-.94.74-1.9 1.4-2.87 2-.12-.2-.21-.2-.3 0a.62.62 0 00-.52 0 .72.72 0 00-.12.4c0 .43-.04.86-.11 1.3-.04.5-.18.99-.41 1.46l-.47.7c-.08.08-.16.17-.24.3a.35.35 0 01-.23.23l-.18.17a.45.45 0 01-.06-.17c-.04-.04-.07-.04-.11 0-.2.23-.37.5-.53.82a4.45 4.45 0 01-1.64-.64 2.04 2.04 0 01-.76-.65c-.35-.28-.67-.6-.94-1-.27-.39-.59-.7-.94-.94v.36c-.08-.16-.2-.2-.35-.12-.2.35-.23.74-.12 1.17-.11 0-.17.06-.17.18h-.06a.54.54 0 000 .35 5.69 5.69 0 000 1.99c-.04.43-.02.86.06 1.29-.12.31-.14.64-.06 1a4 4 0 00-.06 1.52c.12.47.16.96.12 1.46 0 .94.04 1.9.11 2.88.08.93.04 1.87-.11 2.8.04.9 0 1.78-.12 2.64a5.2 5.2 0 01-.88 1c-.31-.08-.56-.02-.76.18-.43-.24-.84-.5-1.23-.77a4.9 4.9 0 01-1.82-2.16c.04-.08.02-.18-.06-.3-.03-.11.02-.21.18-.29-.08-.39-.04-.8.12-1.23.2-.59.27-1.21.23-1.88v-.17c-.04 0-.06.02-.06.06a.65.65 0 00.06-.3h-.06c0-1.36-.04-2.73-.11-4.1a237.8 237.8 0 00-.3-5.27c-.11-1.4-.13-2.81-.06-4.22.08-1.4.12-2.81.12-4.22.08-.39.06-.8-.06-1.23a17.77 17.77 0 01-.06-3.8c.16-1.3.24-2.59.24-3.87 0-.28-.02-.55-.06-.82a9.6 9.6 0 00-.64.35c-.16.15-.34.29-.53.4a4.4 4.4 0 00-.47.42c-.2.27-.41.52-.64.76.11.23.13.47.05.7-.04.2-.05.41-.05.65-.04.23-.04.48 0 .76.07.23.07.47 0 .7v.06c.07.47.07.94 0 1.4.07.48.15.92.23 1.35-.04.32-.04.63 0 .94 0 .59-.02 1.2-.06 1.82-.04 1.2-.12 2.4-.23 3.57.04.2.02.35-.06.47.08.5.12 1.02.12 1.52.03.36.01.69-.06 1 0 .2-.04.35-.12.47-.04.35-.2.62-.47.82-.04.04-.06.08-.06.12-.04-.08-.12-.14-.23-.18-.2 0-.33.08-.41.23-.04.16-.16.26-.35.3-.04.16-.14.23-.3.23a1.3 1.3 0 00-.76-.53 1.03 1.03 0 01-.3-.29c-.03-.12-.13-.15-.28-.12a.35.35 0 00-.24-.23c-.35-.55-.72-1.07-1.11-1.58.04-.2.13-.4.29-.59.04-.82.06-1.62.06-2.4.12-1.48.21-2.95.3-4.4.15-2.73.17-5.44.05-8.14-.2-.66-.45-1.3-.76-1.93.16-.04.3-.14.4-.3.09.04.13.02.13-.05l-.12-.36c.16-.07.3-.11.4-.11-.03-.04-.05-.08-.05-.12.12.04.22-.02.3-.18 0-.15-.08-.27-.24-.35.16-.15.3-.2.4-.11l.42.23c.5.31.96.7 1.35 1.17h.06l.58.47c.94-.7 1.92-1.33 2.93-1.87.27-.08.53-.2.76-.36l.12-.52c.12-2.74.1-5.45-.06-8.15.04-.47.04-.94 0-1.4-.39-.28-.72-.6-1-1 .12.04.26.04.42 0 .03-.12.13-.2.29-.23.2-.04.31-.16.35-.36.47-.35 1-.46 1.58-.35.43.24.86.45 1.3.65.77.43 1.48.97 2.1 1.64L23 74.4c-.04.12-.02.18.06.18.2.27.25.56.17.88.16.27.16.54 0 .82a.56.56 0 00-.4.47c0 .23-.07.45-.18.64 0 .4.02.8.06 1.23 0 1.02-.1 2.03-.3 3.05-.04.12-.02.21.06.3.31.15.63.2.94.17 1.25.35 2.4.86 3.46 1.52.2.04.37.14.52.3.16.15.33.27.53.34.5.47.88 1.06 1.11 1.76-.04.04-.06.1-.06.18.08.04.08.1 0 .17a3.7 3.7 0 00-.35.82 2.1 2.1 0 00-.17.53c0 .12-.04.26-.12.41-.08.12-.08.26 0 .41-.2.08-.3.2-.3.35.05.16.07.32.07.47 0 .2.02.4.05.59.08.15.08.3 0 .4.12.4.14.8.06 1.24-.04.43-.04.84 0 1.23-.04.08-.02.18.06.3-.04.73-.02 1.46.06 2.16.08.55.12 1.1.12 1.64 0 .08.04.12.11.12a44.66 44.66 0 003.4-3.81c.24 0 .43-.1.59-.3a3 3 0 00.7-.7A8.48 8.48 0 0135 90.28c.12-.12.14-.23.06-.35a.92.92 0 01-.18-.23c-.04-.12-.13-.16-.29-.12a.82.82 0 01-.35.06c-.12-.04-.22-.02-.3.06a2.88 2.88 0 00-.81 0c0 .03.01.07.05.11a1.54 1.54 0 00-1.17-.23c-.08-.16-.21-.2-.4-.12v-.12c0-.04 0-.04 0 0-.2-.15-.42-.25-.65-.29a3.24 3.24 0 01-.65-.3l-.35.13c0-.08-.02-.12-.06-.12l-.11.11c.03 0 .05.02.05.06h-.17c.04 0 .06-.02.06-.06h-.06l.12-.11c-.12 0-.2-.04-.24-.12 0-.08.02-.14.06-.18.04.08.1.08.18 0 .03-.11.05-.23.05-.35l.3-.17c.2 0 .35-.08.47-.24a1.3 1.3 0 01-.18-.4.25.25 0 01.23 0c.12.03.22.03.3 0a2.3 2.3 0 01-.12-.3c.9-.16 1.74-.43 2.52-.82.82-.43 1.66-.78 2.52-1.06-.08-.07-.18-.07-.3 0a7.55 7.55 0 01-1.63-.64 2.9 2.9 0 01-1.18-.88c-.3-.39-.68-.72-1.11-1-.39-.35-.74-.74-1.05-1.17-.28-.43-.61-.8-1-1.11a.77.77 0 00-.35-.35.53.53 0 01-.3-.35c.2 0 .4-.04.6-.12v-.06c.26-.12.56-.23.87-.35.59-.08 1.11 0 1.58.23l.12-.23a25.06 25.06 0 013.16-1.76l2.05-1.4c1.06-.7 2.13-1.4 3.23-2.06.5-.35 1.03-.7 1.58-1.05l.7-.47c.27-.12.5-.25.7-.4l-.4-.54a.74.74 0 01-.06-.64c.11.04.2.02.23-.06-.04-.08-.02-.12.06-.12.12-.04.17-.1.17-.17l.41-.12v-.17c.63.03 1.25.11 1.88.23.04-.16.12-.18.23-.06.12.04.22.04.3 0v-.12c.23-.2.45-.15.64.12zm-8.97 8.44l-.12-.06a.73.73 0 01-.41 0c-.16-.08-.3-.08-.41 0-.55.04-1.07.06-1.58.06-.04 0-.08-.02-.12-.06-.82.2-1.64.43-2.46.7 0 .04-.02.06-.06.06.66.2 1.29.45 1.88.76.27.16.54.28.82.35a5.19 5.19 0 012.28 2.11c.12.32.18.65.18 1-.16.43-.45.66-.88.7-.08.2-.16.35-.24.47 1.1-.39 2.25-.72 3.46-1 .04-1.63.1-3.26.18-4.86a.52.52 0 00-.06-.23 2.12 2.12 0 00-.7 0c-.24.04-.45.02-.65-.06a.95.95 0 01-.59.06 1.2 1.2 0 00-.52 0zM23.34 85.3l-.7-.12a.63.63 0 01-.35.12c-.08.2-.18.37-.3.53 0-.04-.02-.06-.06-.06 0-.04-.02-.04-.05 0a5.4 5.4 0 00-.06.76 1.9 1.9 0 00-.18 1.06l.12 1.05a3.83 3.83 0 00-.12 2.29c-.08.86-.12 1.7-.12 2.52.08.78.12 1.58.12 2.4.12.31.1.62-.06.94a1.3 1.3 0 000 .93c.08.2.08.4 0 .59-.04.2-.02.39.06.58-.08.47.04.86.35 1.18.59-.04 1.14-.2 1.64-.47.12-1.1.12-2.19 0-3.28-.15-1.06-.2-2.11-.11-3.17-.12-.94-.16-1.9-.12-2.87-.04.04-.06.04-.06 0 .04-.04.06-.08.06-.12v-.05c.08-.55.12-1.14.12-1.76a79.76 79.76 0 01-.18-3.05zm28.89 14.6a7.7 7.7 0 001.87 1.1l2.11 1.53c.24.15.47.35.7.58.4.28.77.59 1.12.94v.12c.35.27.66.62.93 1.05.16.4.34.72.53 1 0 .23.02.49.06.76.04.23-.06.43-.3.59-.15.04-.3.1-.46.17v-.06c-.04-.04-.08-.06-.12-.06 0 .08-.04.12-.12.12v-.11a.58.58 0 00-.58.23c-.12.2-.27.35-.47.47a8.61 8.61 0 00-.7 1.99 78.52 78.52 0 01-2.64 6.21c-.2.43-.45.82-.76 1.17-.12.08-.24.18-.35.3-.04-.04-.06-.02-.06.06-.04 0-.06.01-.06.05s0 .04 0 0c-.27.08-.49.22-.64.41-.12.28-.34.47-.65.59-.23.08-.47.08-.7 0-.16 0-.33-.02-.53-.06-.16 0-.31.08-.47.23-.62-.46-1.23-.95-1.81-1.46H48c-.28.04-.53.06-.76.06-.24.04-.47.04-.7 0-.2.08-.42.1-.65.06a.92.92 0 00-.65.12c0-.04-.02-.08-.05-.12 0 .04-.02.08-.06.12V118c-.16 0-.34.06-.53.17-.43 0-.84.04-1.23.12-.08-.04-.18-.02-.3.06-.42 0-.85.06-1.28.17h-2.23c-.27.12-.59.22-.94.3a3.68 3.68 0 00-1.46-.06c0 .27-.12.45-.35.52a.94.94 0 00-.12.41c0 .16-.08.26-.24.3-.3 0-.6-.06-.87-.18-.24.04-.5 0-.77-.12a4 4 0 01-1.17-.52c-.35-.04-.62-.2-.82-.47-.39-.23-.74-.55-1.05-.94l-.82-1.05c-.24-.51-.5-1-.76-1.47l-1.18-2.46a22.47 22.47 0 01-.7-5.62 5.82 5.82 0 00-.88-1.12c0-.08-.04-.13-.12-.17.2 0 .32-.1.36-.3.07-.03.11-.11.11-.23.28-.08.51-.22.7-.41.51-.04 1 .04 1.47.23.12.12.24.16.35.12a20.74 20.74 0 015.57-3.63 41.73 41.73 0 017.32-2.17c2.03-.35 4.07-.47 6.1-.35a1.5 1.5 0 011.23.06l1.17.52.53.18zm-1.76 2.63c-.2-.04-.4-.04-.59 0-1.1-.04-2.17 0-3.22.11-.04-.03-.08-.05-.12-.05-.47.11-.93.21-1.4.29-.16 0-.3.04-.41.12.04.11.02.23-.06.35-.08.08-.12.15-.12.23.2.2.31.43.35.7.04.28.1.55.18.83-.08.39-.12.78-.12 1.17.82.2 1.58.5 2.29.94.43.15.72.44.88.87.07.2.11.41.11.65a.7.7 0 01-.47.47.57.57 0 00-.35.23c-.08.12-.17.18-.3.18-.58.39-1.24.62-1.98.7-.08.27-.12.55-.12.82-.12.16-.2.33-.23.53-.16.78-.28 1.6-.36 2.46 1.21-.16 2.45-.27 3.7-.35.5-.7.93-1.45 1.28-2.23.75-1.91 1.2-3.9 1.35-5.98.04-.46.1-.91.18-1.34.11-.43.15-.88.11-1.35-.2-.16-.39-.27-.58-.35zm-11.78 2.28l-.47-.47c-.54.28-1.1.53-1.64.77-.5.3-1.03.62-1.58.93h.06v.06c.04-.04.08-.06.12-.06 0-.04-.02-.06-.06-.06.15-.11.35-.2.58-.23h-.06a.68.68 0 01-.11.18c-.16.11-.35.21-.59.29-.12.16-.25.27-.4.35 0 .12-.05.2-.13.24-.07 0-.11-.04-.11-.12a.68.68 0 01-.18.12v-.18c.04-.08.1-.14.18-.18v.12a.73.73 0 01.29-.17h-.18c.12-.12.26-.2.41-.24-.11-.04-.2-.02-.23.06-.5.27-.98.6-1.4 1h.05c.04 0 .08.03.12.11-.04 0-.06.04-.06.12-.08.04-.14.04-.17 0-.08 0-.14.02-.18.06-.04.04-.04.11 0 .23v-.17c.08-.04.14-.04.17 0-.03.04-.1.06-.17.06.08 0 .16.02.23.05-.04.04-.1.06-.17.06-.08.04-.12.1-.12.18-.12 0-.2.06-.23.17.07 0 .1.04.05.12 0 .04-.01.06-.05.06-.08.55 0 1.05.23 1.52.12.51.25 1.06.41 1.64a.8.8 0 01.24.59c.15.35.27.74.35 1.17.11.35.27.7.47 1.06.23.47.44.93.64 1.4 1.37-.31 2.75-.55 4.16-.7l.12-.12a82.4 82.4 0 01-.3-3.22c-.07 0-.2.02-.35.06a7.3 7.3 0 01-2.75-.3 4.1 4.1 0 00-.59-.29c-.23.08-.47.08-.7 0a1.2 1.2 0 00-.53 0c-.15-.11-.2-.23-.11-.35 0-.12.03-.16.11-.12.12.04.2.02.24-.05l-.18-.18c.12 0 .22-.02.3-.06.07 0 .1-.04.05-.12-.04 0-.06-.04-.06-.11l.53-.24a2.34 2.34 0 01-.12-.3c.08-.03.2-.05.36-.05a40.74 40.74 0 003.92-1.82c0-.93.02-1.85.06-2.75-.04-.04-.1-.06-.18-.06-.07-.08-.17-.1-.29-.06zm-11.72 25.55l.88.88c.31.31.53.66.65 1.05.07.24.07.43 0 .59l-2.23 1.4c-.63.24-1.27.5-1.93.77-.63.23-1.3.3-2 .23a15.63 15.63 0 01-3.69-1.4 6.33 6.33 0 01-2.7-2.76v-.3c.32-.03.57-.15.77-.34.55-.12 1.11-.1 1.7.06.62.11 1.2.11 1.76 0 .62-.2 1.17-.45 1.64-.77 0-.04-.02-.06-.06-.06.08-.03.13-.1.17-.17a.45.45 0 00-.17-.06c.31.08.47.02.47-.17a1.77 1.77 0 011.7-.18c.58.23 1.19.37 1.81.4l1.23.83zm3.28 12.89a2.1 2.1 0 01-.46 1.52c-.28.2-.6.28-.94.24v-.06c-.31.55-.59 1.11-.82 1.7a16.66 16.66 0 01-2.17 4.8c-.5.98-1.04 1.9-1.58 2.76-.47.54-.9 1.15-1.3 1.81l.18.18c.67.04 1.35.04 2.05 0 .7-.08 1.37.08 2 .47 1.25.5 2.46 1.1 3.63 1.76 1.1.62 1.9 1.5 2.4 2.63v1.35c.04.47-.13.86-.53 1.17-.9.2-1.73.08-2.51-.35-.79-.43-1.5-.9-2.17-1.4a16.45 16.45 0 01-2.64-2.06c-.78-.82-1.56-1.6-2.34-2.34l-.59-.35c-.5.47-.92.97-1.23 1.52a8.47 8.47 0 011.93 2.17c.12.27.26.55.41.82.2.23.26.49.18.76.23.31.37.65.41 1 .08.55.1 1.11.06 1.7-.04.54.04 1.11.23 1.7l-.11.76c-.12.74-.16 1.48-.12 2.22.04.75 0 1.49-.12 2.23.16-.04.18.25.06.88.2 1.76.35 3.5.47 5.22 0 .54-.1 1.09-.3 1.63-.3.16-.4.4-.29.7.16.09.2.22.12.42-.31.43-.78.62-1.4.59a7.41 7.41 0 01-3.05-2.12 6.34 6.34 0 01-1.53-3.22c0-.12.06-.2.18-.23.12-.08.14-.18.06-.3.27-.19.45-.48.53-.87-.04-1.57-.12-3.44-.24-5.63-.08-2.22-.06-4.43.06-6.62a4.4 4.4 0 00-.47-.41 14.7 14.7 0 01-5.04 2.87c-1.6.82-3.26 1.45-4.98 1.88l-.06-.12a44.46 44.46 0 005.8-7.73c1.64-2.82 3.28-5.6 4.93-8.33a61.42 61.42 0 001.75-3.98h-.23c-1.4.66-2.7 1.48-3.87 2.46-.82.55-1.58 1.17-2.28 1.88l.05.17c-.23-.04-.4 0-.52.12s-.24.1-.35-.06c-.24.08-.45 0-.65-.23-.5-.04-.94-.22-1.29-.53l-1-1c-.3-.43-.64-.84-.99-1.23-.31-.43-.3-.88.06-1.35.2-.27.31-.58.35-.93.08-.4.33-.6.76-.65 0-.2.08-.35.24-.47.82.12 1.62.35 2.4.7a61.86 61.86 0 003.57-1.81c1.21-.7 2.5-1.4 3.87-2.1.16-.13.31-.22.47-.3 0-.31.12-.49.35-.53a.7.7 0 00.53-.41c.23-.08.45-.22.64-.41.28 0 .57.02.88.06.31.04.59-.02.82-.18a8 8 0 015.74 3.46zm12.2-13.83a2.7 2.7 0 011.8.3c.6.3 1.2.6 1.82.87a5.26 5.26 0 012.23 2.11c.5.63.7 1.33.59 2.11-.12.24-.26.43-.41.59-.16.12-.24.31-.24.58-.08.7-.1 1.45-.06 2.23.08.74-.02 1.47-.29 2.17v.06c1.02-.08 2.05-.22 3.1-.41.47.04.9-.04 1.3-.24.11-.04.21-.13.29-.29 1.44.2 2.77.7 3.98 1.52 1.25.78 2.42 1.63 3.52 2.52.04.04.06.08.06.12.39.4.78.76 1.17 1.11.43.32.76.75 1 1.3-.04.5.07.97.35 1.4.04.27-.04.47-.24.59-.15.11-.35.23-.58.35l-1.18 2.52c-.23.85-.56 1.66-1 2.4-.38.74-.71 1.5-.99 2.28a5.4 5.4 0 001 1.53c.43.47.64 1.01.64 1.64a.66.66 0 00-.23.23c.04.08.04.2 0 .35-.08 0-.16.04-.24.12l.24.24-.3.23c.04 0 .06.02.06.06-.11 0-.2.06-.23.17 0 .12-.06.18-.18.18-.7.16-1.42.27-2.16.35-.75.08-1.47.2-2.17.35a1.4 1.4 0 00-.82.12c-.24.16-.45.16-.65 0-.39.12-.8.22-1.23.3a.5.5 0 00-.47 0 .66.66 0 01-.47.05c-.07 0-.13.02-.17.06a5.7 5.7 0 00-1.7.47c0-.08-.04-.1-.12-.06-.04.04-.08.06-.11.06-.47 0-.88.13-1.23.4-.12.79-.22 1.6-.3 2.41.04 2 .06 3.98.06 5.98v3.63a25.7 25.7 0 00-.35 2.58c.08.27.06.53-.06.76-.08.27-.14.55-.18.82-.27.2-.42.45-.46.76-.04.35-.2.63-.47.82.08.31-.02.5-.3.53v.18c-.2.23-.43.47-.7.7-.27.23-.57.3-.88.18a91.78 91.78 0 01-1.58-5.87 55.15 55.15 0 01-.35-6.2c.04-2.12.02-4.2-.06-6.28-1.1.08-1.86.16-2.29.24-.15.12-.27.3-.35.53-.04.2-.11.37-.23.52 0 .24-.12.34-.35.3a1.93 1.93 0 00-.59-.12.88.88 0 01-.88 0 3.67 3.67 0 00-.82-.35c-.62-.2-1.19-.53-1.7-1-.3-.31-.64-.62-1-.94-.3-.35-.5-.76-.58-1.23-.2-.3-.33-.66-.4-1.05a3.61 3.61 0 00-.3-1.11.52.52 0 00.06-.24c-.67-3.12-1.25-6.27-1.76-9.43a40.9 40.9 0 00-.53-1.7 4.4 4.4 0 01-1.4-2.52c.07-.24.21-.3.4-.18.04.04.1.04.18 0 .04-.39.18-.7.41-.93.63.35 1.31.7 2.05 1.05.78.31 1.49.72 2.11 1.23a65.24 65.24 0 017.8-4.34l.11-.11a69.04 69.04 0 01-.17-4.92c0-1.64-.04-3.3-.12-4.98-.16-.04-.24-.12-.24-.24a4.2 4.2 0 01-.87-1.64.3.3 0 00.35 0c-.04-.04-.06-.08-.06-.12.15-.08.21-.17.17-.29a.5.5 0 010-.47h.94zm12.18 15.24v-.41a2 2 0 00-1.23-.3l-1.17.12.06-.06c-.4 0-.77.04-1.12.12-.27.2-.58.31-.94.35-.03-.12-.02-.17.06-.17.08-.04.16-.1.24-.18-.24.2-.5.31-.76.35l.17-.17c-.35.11-.72.19-1.11.23-.28 0-.55.08-.82.23.08-.08.15-.06.23.06a.68.68 0 00-.17.12c-.2.55-.28 1.11-.24 1.7.04.58 0 1.15-.12 1.7-.07.27 0 .45.24.53.23.03.45.1.64.17.55.23 1.08.49 1.59.76.54.28.91.76 1.1 1.47-.03 1.01-.48 1.68-1.34 1.99-.39 0-.76.14-1.11.41-.31.23-.67.37-1.06.41-.23.94-.21 1.88.06 2.81l2.23-.53a9.68 9.68 0 001.64-2.57l1.52-4.46a46.45 46.45 0 001.4-4.68zm-12.07 5.62c.08-1.13.06-2.3-.06-3.51-1.1.54-1.9.83-2.4.88l-1.64.7c-.55.23-1.08.56-1.59 1-.35.34-.48.8-.4 1.34.11.5.17 1 .17 1.47 2.23-.78 4.2-1.41 5.92-1.88zm0 4.8c-.67.12-1.33.2-2 .24a4.5 4.5 0 00-1.1 0c-.67 0-1.35.04-2.06.12-.23-.04-.35.04-.35.23v.47c.2 1.06.37 2.09.53 3.1l.76-.17c1.05-.23 2.42-.53 4.1-.88.08-1.05.12-2.09.12-3.1zm-16.7 35.34l.64.76c.47.16.8.47 1 .94.2.43.45.84.76 1.23 0 .15-.06.31-.17.47-.12.15-.1.3.05.47a.7.7 0 00-.35.46c-.5.55-1.1.94-1.75 1.18-.94.23-1.9.35-2.88.35a5.03 5.03 0 00-1.52-.12c-.2-.08-.39-.14-.59-.18a4.1 4.1 0 01-1.58-.58 3.26 3.26 0 00-1.46-.65 7.35 7.35 0 01-2.93-3.04 6.76 6.76 0 00-.12-.65c.16.04.3.04.41 0l-.12-.23a.66.66 0 01.47.06v-.12c.9.23 1.82.41 2.76.53.93.07 1.77-.14 2.52-.65.3-.2.6-.43.88-.7.19 0 .33-.08.4-.23.08-.2.18-.3.3-.3 1.2.2 2.3.53 3.28 1zm17.7 1.7c1.01.31 1.85.84 2.51 1.58.67.7 1.3 1.46 1.88 2.28.08.2.2.4.35.59.2.2.27.43.24.7.03.12 0 .24-.12.35a.72.72 0 00-.12.41c-.39.44-.84.8-1.35 1.12a33.59 33.59 0 00-.17 3.45 16 16 0 00.47 3.34 18.5 18.5 0 004.57-1.7c.2-.03.37-.11.52-.23.2-.11.41-.13.65-.06a9.14 9.14 0 014.74 3.4c.04.63-.13 1.17-.52 1.64-.28.2-.53.45-.76.76-.24.32-.55.51-.94.59-.74-.04-1.39.2-1.94.7a1.6 1.6 0 01-.93.53l-1.18.24c-1.32.27-2.65.58-3.98.93-.2.67-.3 1.35-.3 2.05.09.31.09.6 0 .88v6.21c-.19 2-.27 3.99-.23 5.98a6.82 6.82 0 00-.06 2c2.27.46 4.54.87 6.8 1.22l.65-.23c0-.04.03-.08.11-.12.08.08.14.08.18 0 .04-.08.08-.1.12-.06.93.35 1.81.8 2.63 1.35l1.53 1.23c.58.43 1.03.96 1.34 1.58.32.08.47.27.47.59 0 .27.12.45.35.53-.35.9-.84 1.7-1.46 2.4-.63.12-1.27.12-1.93 0a15.02 15.02 0 00-3.17-1.06 60.1 60.1 0 00-5.8-1.46c-1.68-.16-3.36-.28-5.04-.35-.62.11-1.25.2-1.87.23-.59.04-1.17.18-1.76.41-1.02.2-2.05.35-3.1.47-1.02.12-2.02.39-3 .82-.23.24-.29.49-.17.76-.08.4-.3.6-.65.65a5.36 5.36 0 00-1.58-.24 6.45 6.45 0 01-2.22-1.05c-.67-.51-1.35-1-2.05-1.47-.32-.31-.67-.62-1.06-.94h.35c-.2-.19-.33-.35-.4-.46.07-.04.2-.08.4-.12a2.33 2.33 0 00-.35-.3c.16-.07.31-.13.47-.17a.92.92 0 01-.18-.23c.08.03.18.06.3.06a9.17 9.17 0 00-.3-.42l1.64.36a12.4 12.4 0 013.64-1.53c1.33-.35 2.63-.72 3.92-1.11 1.49-.23 3-.49 4.51-.76.08-.08.12-.2.12-.35.16-4.53.22-9.1.18-13.72l-.06-1.7c-.24-.03-.47 0-.7.12-.2.08-.41.1-.65.06-.94.2-1.85.14-2.75-.17a9.52 9.52 0 01-2.4-1.3 17.64 17.64 0 01-3.99-3.45c-.04-.24-.02-.45.06-.65.08-.19.12-.38.12-.58.04-.04.1-.06.17-.06l-.06-.17c1.25.3 2.48.6 3.7.87 1.13-.15 2.24-.4 3.34-.76 1.09-.35 2.22-.64 3.4-.88l.11-.11-.47-11.02c.04-.63.04-1.23 0-1.82-.27-.27-.58-.5-.94-.7-.35-.23-.6-.53-.76-.88l-.29-.52c.16.03.31.05.47.05-.16-.23-.2-.43-.12-.58.12.07.2.06.24-.06l.05-.35v-.12h.36c.11 0 .17-.08.17-.24a5.48 5.48 0 012.64-.05 3.2 3.2 0 011.4.82zm-18.35 7.44c1.37.47 2.66 1.19 3.87 2.17.12.2.26.39.41.58.16.16.22.37.18.65 0 .2-.06.37-.18.52a.5.5 0 00-.06.42c-.04.35-.23.54-.58.58-.31.04-.51.24-.59.59a33.6 33.6 0 00-2.46 5.39c-.66 1.87-1.33 3.7-2 5.5 1.65.24 3.23.8 4.75 1.7.98.63 1.92 1.35 2.82 2.17a5.94 5.94 0 011.34 1.82l.24.94c-.04.47-.22.76-.53.88-.82.23-1.6.17-2.34-.18-.7-.4-1.37-.78-2-1.17a.4.4 0 01-.4-.12.87.87 0 00-.41-.23c-1.1-.7-2.25-1.37-3.46-2a40.6 40.6 0 01-1.35-.7c-.12.31-.27.59-.47.82.31.74.72 1.4 1.23 2 .55.54 1 1.17 1.35 1.87.12.58.1 1.17-.06 1.76.04 1.2.04 2.4 0 3.57.16 1.8.18 3.57.06 5.33.12.9.22 1.78.3 2.64-.05.43-.12.82-.24 1.17 0 .27-.08.49-.24.65l-.29.52c-.08.24-.21.37-.4.41-.28.4-.63.69-1.06.88a3.29 3.29 0 01-1.7-1c-.47-.5-.9-1.05-1.3-1.63l-.46-1.06c-.12-.4-.1-.78.06-1.17.04-.24.14-.43.3-.59.19-.15.25-.35.17-.58-.04-3.52.02-7 .17-10.43a5.73 5.73 0 01-1.64 1.58l-1.4 2.1c.27-.38.54-.81.82-1.28-.08.04-.2.08-.36.12.2-.12.34-.26.41-.41-.03-.04-.07-.04-.11 0-.51.5-1.04.95-1.58 1.34.03.12 0 .18-.12.18a.52.52 0 00-.24.06c0-.04.02-.06.06-.06h-.4l-.36.06c-.23 0-.59.14-1.05.4-.36.13-.67.32-.94.6-.24.27-.55.4-.94.4-.12 0-.27.02-.47.06.16-.04.26-.11.3-.23-.43.08-.82.2-1.18.35-.35.35-.78.55-1.29.59a6.4 6.4 0 01-2.57 1.1 17.09 17.09 0 003.28-3.21 222.9 222.9 0 002.75-3.64 68.46 68.46 0 007.33-15c.03-.15-.02-.27-.18-.35a1.92 1.92 0 01-.3-.23c-.3-.04-.6.04-.87.23 0-.04-.04-.1-.12-.17-.04.08-.04.11 0 .11.04.04.04.08 0 .12a13.02 13.02 0 01-3.69 1.35 2.9 2.9 0 01-.76.64c-.24.12-.35.36-.35.7a.63.63 0 01-.47.18 2.88 2.88 0 00-.3-.17c-.15.15-.3.17-.46.06l-.88-.88c.04 0 .07.01.11.05h.06a25.9 25.9 0 01-1-1.17 1.6 1.6 0 01-.29-1.4c.36-.35.59-.76.7-1.23l.48-1.47h.17c0-.12.02-.25.06-.4.35.07.72.17 1.11.28.43.12.69.41.76.88 1.6-.66 3.11-1.46 4.52-2.4l4.33-2.93c.04-.27.14-.5.3-.7l.58-.59c.24.04.45 0 .65-.12.2-.15.39-.21.58-.17h.3z"/></svg>