<svg viewBox="0 0 1024 1024" xmlns="http://www.w3.org/2000/svg"><path fill-rule="evenodd" d="M629 288c10 0 19 6 22 15l21 49h112c27 0 48 21 48 48v16l23 12c25 13 46 34 56 61a1075 1075 0 0 0 83 229c5 10-6 21-16 16l-56-26c-33-16-57-44-68-79l-22-75v134c0 27-21 48-48 48H240c-27 0-48-21-48-48V400c0-27 21-48 48-48h112l21-49c3-9 12-15 22-15h234zM512 660a116 116 0 1 0 0-232 116 116 0 0 0 0 232zm0 40a156 156 0 1 0 0-312 156 156 0 0 0 0 312zM192 416v138l-22 75c-11 35-35 63-68 79l-56 26c-10 5-21-6-16-16 19-42 51-115 59-148 6-29 16-58 24-81 10-27 31-48 56-61l23-12z" clip-rule="evenodd"/></svg>