<svg xmlns="http://www.w3.org/2000/svg" width="256" height="256" fill="none"><rect width="256" height="256" fill="#fff" rx="18"/><path fill="#000" d="M172.09 213.7c-2.68-.86-5.02-.88-6.05-2.06-6.45-7.36-15.05-6.92-23.35-6.24-5.91.48-11.84 2.17-17.48 4.13-4.84 1.68-8.78 1.65-12.64-1.95-2.87-2.68-6.03-5.03-9.26-7.69 10.15-3.27 19.16-6.28 28.23-9.07 5.28-1.62 10.7-2.8 16-4.38 3.28-.97 6.61-1.98 9.66-3.5 4.74-2.38 8.41-1.77 11.43 2.4.4.54 1.27.76 1.93 1.11l13.11 6.82c.35-.76 1.62-2.57 2-4.55 3.74-19.44 1.26-39.1 1.66-58.65.17-8.06-1.21-16.14-1.84-24.2-.42-5.44-1.18-10.89-1.01-16.3.16-5.08-1.53-9.23-3.84-13.54-2.21-4.1-5.87-6.22-9.8-6.38-9.33-.38-18.97-2.38-27.92 1.72a274.03 274.03 0 0 0-25.37 13.52c10.42 3.3 20.7 5.94 19.67 18.56 6.98 2.12 13.93 3.36 20.03 6.34 6.33 3.1 4.54 13.25-2.61 16.78a129.06 129.06 0 0 1-11.82 5c-4.64 1.73-7.13 5.34-6.99 10.8 4.88.63 9.8 1.92 14.68 1.77 9.39-.3 14.72 5.8 20.51 11.52 4.94 4.88 5.63 9.1 1.38 14.21-1.51 1.82-4.23 2.93-6.61 3.66-3.9 1.2-8.01 1.74-11.98 2.74-5.56 1.4-10.99 2.1-16.59-1.17 3.17-3.5 6-6.39 8.54-9.5 1.67-2.06 2.21-3.97-1.33-5.22-3.06-1.08-5.81-3-9.62-5.05-1.85 4.91-3.87 9.62-5.41 14.5-3.54 11.17-14.52 19.34-25.57 18.43-2.86-.23-5.68-1.24-8.43-2.17-.72-.24-1.5-1.5-1.52-2.3-.02-.69.89-1.6 1.61-2.07 7.88-4.99 15.88-9.82 17.96-20 .74-3.66 1.54-7.3 2.4-11.3-13.8-4.6-27.87-9.16-33.95-25.65 11.36 3.08 20.32-1.79 29.48-5.4 1.26-.5 2.87-2.77 2.65-3.9-1.02-5.28-2.92-10.38-3.92-15.66-1.18-6.2-5.98-8.65-10.68-11.19-6.24-3.39-11.71-7.55-15.82-13.52.55-.49.97-1.14 1.24-1.08 5.78 1.28 10.58-.96 15.36-3.85 9.25-5.59 18.26-11.77 28.05-16.19 10.82-4.88 22.32-8.35 33.7-11.88 9.38-2.9 18.92-4.9 28.94-5.1 6.71-.13 10.92 4.06 16.1 6.5a51.36 51.36 0 0 1 12.05 8.17c5.31 4.7 10.21 9.88 15.01 15.11.91 1 1.04 3.3.68 4.77-1.61 6.48-3.62 12.85-5.3 19.31a69.92 69.92 0 0 0-1.95 10.11c-1.08 10.3-1.88 20.63-2.9 30.93-.87 8.75-1.97 17.47-2.83 26.22-.24 2.46-.05 4.97.05 7.46.58 14.7-5.05 27.56-12.24 39.8-2.52 4.3-6.1 8.02-9.54 11.68-2.62 2.78-5.64 2.52-8.95.4a7.28 7.28 0 0 0-5.93-.49c-3.93 1.7-11.6-.47-13.06-3.27zM79.18 177.95c3.55 8.97 7 16.86 9.68 25 .75 2.26.11 6.06-1.44 7.74-2.12 2.31-6.23 5.13-8.57 4.47-8.22-2.33-17.04-6.3-20.71-13.85-8.42-17.3-18.84-33.8-22.99-53.1-2.83-13.2-5.74-26.25-4.75-39.83.93-12.65-2.83-24.07-9.4-34.82 7.2-2.1 13.61-1 19.97 2.04 3.45 1.65 7.49 2.12 10.84 3.92 2.6 1.41 4.42 4.2 6.8 6.12a35.21 35.21 0 0 0 5.76 3.6c3.13 1.65 5.27 8.1 3.83 11.34-5.97 13.46-8.61 27.4-5.89 42.1 1.85 10.01 3.45 20.07 5.61 30.01.68 3.1 2.83 5.88 4.34 8.8 1.68 3.21 3.02 3.37 4.27-.36.36-1.06 1.51-1.85 2.65-3.18z"/></svg>